<svg width="136" height="83" viewBox="0 0 136 83" fill="none" xmlns="http://www.w3.org/2000/svg">
<g filter="url(#filter0_d_1_118)">
<path d="M53.1556 2C53.209 8.45259 53.2499 14.9051 53.2749 21.3579C53.2869 24.3544 53.3032 27.3508 53.3294 30.3473C53.3544 33.241 53.3682 36.1346 53.3741 39.0284C53.3784 40.1304 53.3867 41.2324 53.3991 42.3344C53.4159 43.8823 53.4181 45.4297 53.4171 46.9777C53.4254 47.4296 53.4336 47.8816 53.4422 48.3472C53.4187 51.5256 52.7123 54.0886 50.8521 56.7066C48.7033 58.5245 46.7357 59.1251 43.9418 59.01C43.8884 52.4625 43.8475 45.915 43.8225 39.3672C43.8105 36.3268 43.7942 33.2864 43.7681 30.2461C43.743 27.3113 43.7293 24.3766 43.7233 21.4417C43.719 20.3227 43.7107 19.2037 43.6983 18.0847C43.6815 16.5158 43.6793 14.9475 43.6803 13.3786C43.6721 12.9171 43.6638 12.4557 43.6552 11.9803C43.6774 8.96453 44.2725 7.28572 46.2453 4.8793C47.397 3.91203 47.397 3.91203 48.5487 3.2237C48.9288 2.98764 49.3088 2.75159 49.7004 2.50838C50.8521 2 50.8521 2 53.1556 2Z" fill="#06BD91"/>
<path d="M66.4003 6.60687C66.4538 12.4588 66.4947 18.3107 66.5197 24.1628C66.5317 26.8805 66.5479 29.598 66.5741 32.3155C66.5992 34.9404 66.6129 37.5652 66.6189 40.1902C66.6231 41.1893 66.6314 42.1885 66.6439 43.1876C66.6607 44.5921 66.6629 45.996 66.6618 47.4006C66.6701 47.8095 66.6784 48.2183 66.6869 48.6395C66.6618 51.7243 65.8536 54.1963 64.0969 56.7066C61.9504 58.5263 59.9791 59.125 57.1866 59.01C57.1198 53.0731 57.0687 47.1363 57.0374 41.199C57.0224 38.4419 57.0021 35.6851 56.9694 32.9281C56.938 30.2659 56.9209 27.6039 56.9134 24.9415C56.9081 23.9274 56.8977 22.9133 56.8822 21.8993C56.8612 20.4752 56.8584 19.0521 56.8597 17.6279C56.8494 17.2116 56.839 16.7953 56.8284 16.3664C56.8608 13.1439 57.9366 11.2072 60.0659 8.91031C62.0687 7.44483 63.9052 6.60687 66.4003 6.60687Z" fill="#06BD92"/>
<path d="M39.9108 16.9723C39.9644 21.4728 40.0052 25.9731 40.0302 30.4738C40.0421 32.564 40.0584 34.654 40.0846 36.7442C40.1098 38.7642 40.1234 40.784 40.1294 42.8041C40.1356 43.9435 40.1536 45.0828 40.1718 46.2221C40.1728 50.3729 39.9407 53.2197 37.6074 56.7066C35.4419 58.5112 33.5005 59.1255 30.6971 59.01C30.6436 54.4146 30.6027 49.8193 30.5777 45.2237C30.5657 43.0895 30.5495 40.9556 30.5233 38.8215C30.4982 36.7604 30.4845 34.6995 30.4785 32.6383C30.4743 31.8536 30.466 31.0688 30.4535 30.2842C30.3374 22.67 30.3374 22.67 33.0005 19.8516C35.3342 17.7456 36.7131 16.9723 39.9108 16.9723Z" fill="#06BC91"/>
<path d="M26.6661 27.3378C26.7233 30.7799 26.7649 34.2217 26.7926 37.6642C26.8041 38.8337 26.8198 40.0033 26.8398 41.1727C26.868 42.8596 26.8809 44.5461 26.891 46.2332C26.9029 46.751 26.9148 47.2689 26.927 47.8024C26.9282 51.1958 26.4006 53.9211 24.3626 56.7066C22.2096 58.5211 20.2486 59.1251 17.4523 59.01C17.3791 55.3935 17.3288 51.7771 17.2942 48.16C17.2797 46.9306 17.2601 45.7012 17.2351 44.472C17.2 42.7008 17.1838 40.9302 17.1711 39.1586C17.1563 38.6126 17.1414 38.0666 17.1261 37.504C17.1245 33.7358 17.8239 31.8995 20.3316 29.0654C22.5128 27.3316 23.9382 27.274 26.6661 27.3378Z" fill="#4FFEA6"/>
<path d="M13.9972 40.5826C13.9839 42.5029 13.9392 44.4214 13.8892 46.3411C13.8858 46.8793 13.8825 47.4175 13.8791 47.972C13.761 51.7252 13.045 54.41 10.542 57.2825C8.30535 58.7736 6.8407 59.0812 4.20756 59.01C4.14025 57.0667 4.0996 55.1236 4.0636 53.1795C4.0443 52.6316 4.025 52.0838 4.00511 51.5194C3.95806 48.1321 4.19368 46.1253 6.511 43.4619C8.98475 41.2294 10.6757 40.4928 13.9972 40.5826Z" fill="#4FFDA5"/>
<path d="M13.9972 40.5826C13.8071 41.3427 13.6171 42.1028 13.4213 42.886C12.7324 42.9929 12.0436 43.0998 11.3338 43.2099C8.426 43.933 6.9046 45.5596 5.35929 48.0687C4.81659 49.6567 4.81659 49.6567 4.78343 50.948C4.59339 50.948 4.40336 50.948 4.20757 50.948C3.94349 47.647 4.40541 46.0227 6.511 43.4619C8.98476 41.2294 10.6757 40.4928 13.9972 40.5826Z" fill="#D7F0E8"/>
<path d="M39.9108 16.9723C39.9108 17.7325 39.9108 18.4926 39.9108 19.2758C39.02 19.4717 39.02 19.4717 38.1113 19.6717C35.7069 20.374 34.1699 21.4804 32.4247 23.3068C31.8346 24.6676 31.561 25.8684 31.2729 27.3378C31.0829 27.3378 30.8929 27.3378 30.6971 27.3378C30.433 24.0368 30.8949 22.4125 33.0005 19.8516C35.3342 17.7456 36.7131 16.9723 39.9108 16.9723Z" fill="#43EC9F"/>
<path d="M53.1556 2C53.1556 2.76013 53.1556 3.52027 53.1556 4.30344C52.8149 4.38806 52.4741 4.47268 52.1231 4.55987C48.7013 5.53115 47.1136 6.55381 45.0936 9.48617C44.6257 8.5504 44.6257 8.5504 44.5177 7.18273C46.7349 3.89053 49.02 2 53.1556 2Z" fill="#41E99E"/>
<path d="M26.6661 27.3378C26.6661 27.9079 26.6661 28.478 26.6661 29.0654C26.3253 29.15 25.9846 29.2346 25.6336 29.3218C22.1933 30.2983 20.606 31.2755 18.604 34.2481C17.8678 35.5241 17.8678 35.5241 17.4523 36.5515C17.1705 34.2405 17.4234 32.8656 18.712 30.9729C20.996 28.073 22.9299 27.0771 26.6661 27.3378Z" fill="#E3F3EE"/>
<path d="M66.4003 6.60687C66.4003 7.36701 66.4003 8.12714 66.4003 8.91031C66.0596 9.00161 65.7189 9.09292 65.3678 9.18699C62.2451 10.109 60.4347 11.015 58.3383 13.5172C58.3383 11.2137 58.3383 11.2137 59.526 9.73811C61.5204 8.08318 63.706 6.60687 66.4003 6.60687Z" fill="#44EC9F"/>
<path d="M34.1522 18.6999C34.5323 18.8899 34.9124 19.08 35.304 19.2758C33.5764 21.8671 33.5764 21.8671 31.8488 24.4585C31.6271 25.4118 31.4296 26.3716 31.2729 27.3378C31.0829 27.3378 30.8929 27.3378 30.6971 27.3378C30.4332 24.0391 30.9515 22.4431 33.0005 19.8516C33.3806 19.4716 33.7606 19.0915 34.1522 18.6999Z" fill="#3CE39C"/>
</g>
<line opacity="0.24" x1="4" y1="70" x2="26" y2="70" stroke="#000526" stroke-width="2"/>
<line x1="109" y1="70" x2="133" y2="70" stroke="#06BD92" stroke-width="2"/>
<g filter="url(#filter1_d_1_118)">
<path d="M78.5284 50V20.9091H90.1761C92.3163 20.9091 94.1013 21.2263 95.5312 21.8608C96.9612 22.4953 98.036 23.3759 98.7557 24.5028C99.4754 25.6203 99.8352 26.9081 99.8352 28.3665C99.8352 29.5028 99.608 30.5019 99.1534 31.3636C98.6989 32.2159 98.0739 32.9167 97.2784 33.4659C96.4924 34.0057 95.5928 34.3892 94.5795 34.6165V34.9006C95.6875 34.9479 96.7244 35.2604 97.6903 35.8381C98.6657 36.4157 99.4564 37.2254 100.062 38.267C100.669 39.2992 100.972 40.5303 100.972 41.9602C100.972 43.5038 100.588 44.8816 99.821 46.0938C99.0634 47.2964 97.9413 48.2481 96.4545 48.9489C94.9678 49.6496 93.1354 50 90.9574 50H78.5284ZM84.679 44.9716H89.6932C91.4072 44.9716 92.6572 44.6449 93.4432 43.9915C94.2292 43.3286 94.6222 42.4479 94.6222 41.3494C94.6222 40.5445 94.428 39.8343 94.0398 39.2188C93.6515 38.6032 93.0975 38.1203 92.3778 37.7699C91.6676 37.4195 90.8201 37.2443 89.8352 37.2443H84.679V44.9716ZM84.679 33.0824H89.2386C90.0814 33.0824 90.8295 32.9356 91.483 32.642C92.1458 32.339 92.6667 31.9129 93.0455 31.3636C93.4337 30.8144 93.6278 30.1562 93.6278 29.3892C93.6278 28.3381 93.2538 27.4905 92.5057 26.8466C91.767 26.2027 90.7159 25.8807 89.3523 25.8807H84.679V33.0824Z" fill="#000526"/>
</g>
<g filter="url(#filter2_d_1_118)">
<path d="M124.818 31.3125C124.619 30.6212 124.34 30.0104 123.98 29.4801C123.62 28.9403 123.18 28.4858 122.659 28.1165C122.148 27.7377 121.561 27.4489 120.898 27.25C120.244 27.0511 119.52 26.9517 118.724 26.9517C117.238 26.9517 115.931 27.321 114.804 28.0597C113.687 28.7983 112.815 29.8731 112.19 31.2841C111.565 32.6856 111.253 34.3996 111.253 36.4261C111.253 38.4527 111.561 40.1761 112.176 41.5966C112.792 43.017 113.663 44.1013 114.79 44.8494C115.917 45.5881 117.247 45.9574 118.781 45.9574C120.173 45.9574 121.362 45.7112 122.347 45.2188C123.341 44.7169 124.098 44.0114 124.619 43.1023C125.15 42.1932 125.415 41.1184 125.415 39.8778L126.665 40.0625H119.165V35.4318H131.338V39.0966C131.338 41.6534 130.798 43.8504 129.719 45.6875C128.639 47.5152 127.152 48.9261 125.259 49.9205C123.365 50.9053 121.196 51.3977 118.753 51.3977C116.026 51.3977 113.63 50.7964 111.565 49.5938C109.501 48.3816 107.891 46.6629 106.736 44.4375C105.59 42.2027 105.017 39.5511 105.017 36.483C105.017 34.125 105.358 32.0227 106.04 30.1761C106.731 28.3201 107.697 26.7481 108.938 25.4602C110.178 24.1723 111.622 23.1922 113.27 22.5199C114.918 21.8475 116.703 21.5114 118.625 21.5114C120.273 21.5114 121.807 21.7528 123.227 22.2358C124.648 22.7093 125.907 23.3816 127.006 24.2528C128.114 25.1241 129.018 26.161 129.719 27.3636C130.42 28.5568 130.869 29.8731 131.068 31.3125H124.818Z" fill="#000526"/>
</g>
<g filter="url(#filter3_d_1_118)">
<path d="M35.076 76V65.0909H42.0646V66.7475H37.0522V69.7092H41.5852V71.3658H37.0522V76H35.076ZM45.8413 65.0909V76H43.8651V65.0909H45.8413ZM56.9461 65.0909V76H55.1883L50.048 68.5692H49.9575V76H47.9813V65.0909H49.7497L54.8847 72.527H54.9806V65.0909H56.9461ZM60.5004 76H58.391L62.2315 65.0909H64.6712L68.517 76H66.4077L63.494 67.3281H63.4087L60.5004 76ZM60.5696 71.7227H66.3224V73.31H60.5696V71.7227ZM78.9188 65.0909V76H77.161L72.0207 68.5692H71.9301V76H69.9539V65.0909H71.7224L76.8573 72.527H76.9532V65.0909H78.9188ZM90.4098 68.7717H88.4176C88.3608 68.445 88.256 68.1555 88.1033 67.9034C87.9506 67.6477 87.7607 67.4311 87.5334 67.2536C87.3061 67.076 87.0469 66.9428 86.7557 66.854C86.468 66.7617 86.1573 66.7156 85.8235 66.7156C85.2305 66.7156 84.7049 66.8647 84.2468 67.163C83.7887 67.4577 83.43 67.891 83.1708 68.4627C82.9116 69.0309 82.782 69.7251 82.782 70.5455C82.782 71.38 82.9116 72.0831 83.1708 72.6548C83.4336 73.223 83.7923 73.6527 84.2468 73.9439C84.7049 74.2315 85.2287 74.3754 85.8182 74.3754C86.1449 74.3754 86.4503 74.3327 86.7344 74.2475C87.022 74.1587 87.2795 74.0291 87.5067 73.8587C87.7376 73.6882 87.9311 73.4787 88.0874 73.2301C88.2472 72.9815 88.3572 72.6974 88.4176 72.3778L90.4098 72.3885C90.3352 72.907 90.1737 73.3935 89.9251 73.848C89.68 74.3026 89.3587 74.7038 88.9609 75.0518C88.5632 75.3963 88.098 75.6662 87.5653 75.8615C87.0327 76.0533 86.4414 76.1491 85.7915 76.1491C84.8327 76.1491 83.9769 75.9272 83.2241 75.4833C82.4712 75.0394 81.8782 74.3984 81.445 73.5604C81.0117 72.7223 80.7951 71.7173 80.7951 70.5455C80.7951 69.37 81.0135 68.3651 81.4503 67.5305C81.8871 66.6925 82.4819 66.0515 83.2347 65.6076C83.9876 65.1637 84.8398 64.9418 85.7915 64.9418C86.3988 64.9418 86.9634 65.027 87.4854 65.1974C88.0075 65.3679 88.4727 65.6183 88.881 65.9485C89.2894 66.2752 89.625 66.6765 89.8878 67.1523C90.1541 67.6246 90.3281 68.1644 90.4098 68.7717ZM92.2195 76V65.0909H99.3147V66.7475H94.1958V69.7092H98.9472V71.3658H94.1958V74.3434H99.3573V76H92.2195Z" fill="#000526"/>
</g>
<defs>
<filter id="filter0_d_1_118" x="0" y="0" width="70.6869" height="65.0237" filterUnits="userSpaceOnUse" color-interpolation-filters="sRGB">
<feFlood flood-opacity="0" result="BackgroundImageFix"/>
<feColorMatrix in="SourceAlpha" type="matrix" values="0 0 0 0 0 0 0 0 0 0 0 0 0 0 0 0 0 0 127 0" result="hardAlpha"/>
<feOffset dy="2"/>
<feGaussianBlur stdDeviation="2"/>
<feComposite in2="hardAlpha" operator="out"/>
<feColorMatrix type="matrix" values="0 0 0 0 0 0 0 0 0 0 0 0 0 0 0 0 0 0 0.19 0"/>
<feBlend mode="normal" in2="BackgroundImageFix" result="effect1_dropShadow_1_118"/>
<feBlend mode="normal" in="SourceGraphic" in2="effect1_dropShadow_1_118" result="shape"/>
</filter>
<filter id="filter1_d_1_118" x="74.5284" y="18.9091" width="30.4432" height="37.0909" filterUnits="userSpaceOnUse" color-interpolation-filters="sRGB">
<feFlood flood-opacity="0" result="BackgroundImageFix"/>
<feColorMatrix in="SourceAlpha" type="matrix" values="0 0 0 0 0 0 0 0 0 0 0 0 0 0 0 0 0 0 127 0" result="hardAlpha"/>
<feOffset dy="2"/>
<feGaussianBlur stdDeviation="2"/>
<feComposite in2="hardAlpha" operator="out"/>
<feColorMatrix type="matrix" values="0 0 0 0 0 0 0 0 0 0 0 0 0 0 0 0 0 0 0.25 0"/>
<feBlend mode="normal" in2="BackgroundImageFix" result="effect1_dropShadow_1_118"/>
<feBlend mode="normal" in="SourceGraphic" in2="effect1_dropShadow_1_118" result="shape"/>
</filter>
<filter id="filter2_d_1_118" x="101.017" y="19.5114" width="34.321" height="37.8864" filterUnits="userSpaceOnUse" color-interpolation-filters="sRGB">
<feFlood flood-opacity="0" result="BackgroundImageFix"/>
<feColorMatrix in="SourceAlpha" type="matrix" values="0 0 0 0 0 0 0 0 0 0 0 0 0 0 0 0 0 0 127 0" result="hardAlpha"/>
<feOffset dy="2"/>
<feGaussianBlur stdDeviation="2"/>
<feComposite in2="hardAlpha" operator="out"/>
<feColorMatrix type="matrix" values="0 0 0 0 0 0 0 0 0 0 0 0 0 0 0 0 0 0 0.25 0"/>
<feBlend mode="normal" in2="BackgroundImageFix" result="effect1_dropShadow_1_118"/>
<feBlend mode="normal" in="SourceGraphic" in2="effect1_dropShadow_1_118" result="shape"/>
</filter>
<filter id="filter3_d_1_118" x="31.076" y="62.9418" width="72.2813" height="19.2074" filterUnits="userSpaceOnUse" color-interpolation-filters="sRGB">
<feFlood flood-opacity="0" result="BackgroundImageFix"/>
<feColorMatrix in="SourceAlpha" type="matrix" values="0 0 0 0 0 0 0 0 0 0 0 0 0 0 0 0 0 0 127 0" result="hardAlpha"/>
<feOffset dy="2"/>
<feGaussianBlur stdDeviation="2"/>
<feComposite in2="hardAlpha" operator="out"/>
<feColorMatrix type="matrix" values="0 0 0 0 0 0 0 0 0 0 0 0 0 0 0 0 0 0 0.25 0"/>
<feBlend mode="normal" in2="BackgroundImageFix" result="effect1_dropShadow_1_118"/>
<feBlend mode="normal" in="SourceGraphic" in2="effect1_dropShadow_1_118" result="shape"/>
</filter>
</defs>
</svg>
