<svg width="130" height="78" viewBox="0 0 130 78" fill="none" xmlns="http://www.w3.org/2000/svg">
<path d="M49.1556 0C49.209 6.45259 49.2499 12.9051 49.2749 19.3579C49.2869 22.3544 49.3032 25.3508 49.3294 28.3473C49.3544 31.241 49.3682 34.1346 49.3741 37.0284C49.3784 38.1304 49.3867 39.2324 49.3991 40.3344C49.4159 41.8823 49.4181 43.4297 49.4171 44.9777C49.4254 45.4296 49.4336 45.8815 49.4422 46.3472C49.4187 49.5256 48.7123 52.0886 46.8521 54.7066C44.7033 56.5245 42.7357 57.1251 39.9418 57.01C39.8884 50.4625 39.8475 43.915 39.8225 37.3672C39.8105 34.3268 39.7942 31.2864 39.7681 28.2461C39.743 25.3113 39.7293 22.3766 39.7233 19.4417C39.719 18.3227 39.7107 17.2037 39.6983 16.0847C39.6815 14.5158 39.6793 12.9475 39.6803 11.3786C39.6721 10.9171 39.6638 10.4557 39.6552 9.98028C39.6774 6.96453 40.2725 5.28572 42.2453 2.8793C43.397 1.91203 43.397 1.91203 44.5487 1.2237C44.9288 0.987643 45.3088 0.751586 45.7004 0.508376C46.8521 0 46.8521 0 49.1556 0Z" fill="#06BD91"/>
<path d="M62.4003 4.60687C62.4538 10.4588 62.4947 16.3107 62.5197 22.1628C62.5317 24.8805 62.5479 27.598 62.5741 30.3155C62.5992 32.9404 62.6129 35.5652 62.6189 38.1902C62.6231 39.1893 62.6314 40.1885 62.6439 41.1876C62.6607 42.5921 62.6629 43.996 62.6618 45.4006C62.6701 45.8095 62.6784 46.2183 62.6869 46.6395C62.6618 49.7243 61.8536 52.1963 60.0969 54.7066C57.9504 56.5263 55.9791 57.125 53.1866 57.01C53.1198 51.0731 53.0687 45.1363 53.0374 39.199C53.0224 36.4419 53.0021 33.6851 52.9694 30.9281C52.938 28.2659 52.9209 25.6039 52.9134 22.9415C52.9081 21.9274 52.8977 20.9133 52.8822 19.8993C52.8612 18.4752 52.8584 17.0521 52.8597 15.6279C52.8494 15.2116 52.839 14.7953 52.8284 14.3664C52.8608 11.1439 53.9366 9.20718 56.0659 6.91031C58.0687 5.44483 59.9052 4.60687 62.4003 4.60687Z" fill="#06BD92"/>
<path d="M35.9108 14.9724C35.9644 19.4728 36.0052 23.9731 36.0302 28.4738C36.0422 30.564 36.0584 32.6541 36.0846 34.7442C36.1098 36.7642 36.1234 38.784 36.1294 40.8042C36.1357 41.9435 36.1536 43.0828 36.1718 44.2221C36.1728 48.3729 35.9407 51.2197 33.6074 54.7066C31.4419 56.5112 29.5005 57.1255 26.6971 57.0101C26.6436 52.4146 26.6027 47.8194 26.5777 43.2237C26.5657 41.0895 26.5495 38.9556 26.5233 36.8215C26.4982 34.7604 26.4845 32.6996 26.4785 30.6383C26.4743 29.8536 26.466 29.0689 26.4535 28.2842C26.3374 20.67 26.3374 20.67 29.0005 17.8516C31.3342 15.7457 32.7131 14.9724 35.9108 14.9724Z" fill="#06BC91"/>
<path d="M22.6661 25.3378C22.7233 28.7799 22.7649 32.2217 22.7926 35.6642C22.8041 36.8337 22.8198 38.0033 22.8398 39.1727C22.868 40.8596 22.8809 42.5461 22.891 44.2332C22.9029 44.751 22.9148 45.2689 22.927 45.8024C22.9282 49.1958 22.4006 51.9211 20.3626 54.7066C18.2096 56.5211 16.2486 57.1251 13.4523 57.01C13.3791 53.3935 13.3288 49.7771 13.2942 46.1599C13.2797 44.9305 13.2601 43.7012 13.2351 42.472C13.2 40.7007 13.1838 38.9302 13.1711 37.1586C13.1563 36.6126 13.1414 36.0666 13.1261 35.504C13.1245 31.7358 13.8239 29.8995 16.3316 27.0654C18.5129 25.3316 19.9382 25.274 22.6661 25.3378Z" fill="#4FFEA6"/>
<path d="M9.99716 38.5825C9.98388 40.5029 9.93917 42.4214 9.88919 44.3411C9.88585 44.8793 9.88251 45.4175 9.87907 45.972C9.76096 49.7252 9.04504 52.41 6.54201 55.2824C4.30535 56.7735 2.8407 57.0812 0.207561 57.01C0.140246 55.0667 0.0995996 53.1236 0.0635965 51.1794C0.0442963 50.6316 0.024996 50.0838 0.00511087 49.5193C-0.0419353 46.132 0.193675 44.1253 2.511 41.4618C4.98475 39.2294 6.67569 38.4928 9.99716 38.5825Z" fill="#4FFDA5"/>
<path d="M9.99716 38.5825C9.80713 39.3427 9.6171 40.1028 9.42131 40.886C8.73243 40.9929 8.04356 41.0998 7.33382 41.2099C4.42599 41.933 2.90459 43.5596 1.35928 46.0687C0.816585 47.6567 0.816585 47.6567 0.78342 48.948C0.593387 48.948 0.403354 48.948 0.207561 48.948C-0.0565213 45.647 0.405397 44.0227 2.511 41.4618C4.98475 39.2294 6.67569 38.4928 9.99716 38.5825Z" fill="#D7F0E8"/>
<path d="M35.9108 14.9724C35.9108 15.7325 35.9108 16.4926 35.9108 17.2758C35.02 17.4718 35.02 17.4718 34.1113 17.6717C31.7069 18.374 30.1699 19.4804 28.4247 21.3068C27.8346 22.6677 27.561 23.8685 27.2729 25.3378C27.0829 25.3378 26.8929 25.3378 26.6971 25.3378C26.433 22.0368 26.8949 20.4125 29.0005 17.8516C31.3342 15.7457 32.7131 14.9724 35.9108 14.9724Z" fill="#43EC9F"/>
<path d="M49.1556 0C49.1556 0.760134 49.1556 1.52027 49.1556 2.30344C48.8149 2.38806 48.4741 2.47268 48.1231 2.55987C44.7013 3.53115 43.1136 4.55381 41.0936 7.48617C40.6257 6.5504 40.6257 6.5504 40.5177 5.18273C42.7349 1.89053 45.02 0 49.1556 0Z" fill="#41E99E"/>
<path d="M22.6661 25.3378C22.6661 25.9079 22.6661 26.478 22.6661 27.0653C22.3253 27.15 21.9846 27.2346 21.6336 27.3218C18.1933 28.2983 16.606 29.2755 14.604 32.2481C13.8678 33.5241 13.8678 33.5241 13.4523 34.5515C13.1705 32.2405 13.4234 30.8655 14.712 28.9729C16.996 26.073 18.9299 25.0771 22.6661 25.3378Z" fill="#E3F3EE"/>
<path d="M62.4003 4.60687C62.4003 5.36701 62.4003 6.12714 62.4003 6.91031C62.0596 7.00161 61.7189 7.09292 61.3678 7.18699C58.2451 8.10904 56.4347 9.01501 54.3383 11.5172C54.3383 9.21374 54.3383 9.21374 55.526 7.73811C57.5204 6.08318 59.706 4.60687 62.4003 4.60687Z" fill="#44EC9F"/>
<path d="M30.1522 16.6999C30.5323 16.8899 30.9124 17.08 31.3039 17.2757C29.5764 19.8671 29.5764 19.8671 27.8488 22.4585C27.6271 23.4118 27.4296 24.3716 27.2729 25.3378C27.0829 25.3378 26.8929 25.3378 26.6971 25.3378C26.4332 22.0391 26.9515 20.4431 29.0005 17.8516C29.3806 17.4715 29.7606 17.0915 30.1522 16.6999Z" fill="#3CE39C"/>
<line opacity="0.24" y1="68" x2="22" y2="68" stroke="#000526" stroke-width="2"/>
<line x1="105" y1="68" x2="129" y2="68" stroke="#06BD92" stroke-width="2"/>
<path d="M74.5284 48V18.9091H86.1761C88.3163 18.9091 90.1013 19.2263 91.5312 19.8608C92.9612 20.4953 94.036 21.3759 94.7557 22.5028C95.4754 23.6203 95.8352 24.9081 95.8352 26.3665C95.8352 27.5028 95.608 28.5019 95.1534 29.3636C94.6989 30.2159 94.0739 30.9167 93.2784 31.4659C92.4924 32.0057 91.5928 32.3892 90.5795 32.6165V32.9006C91.6875 32.9479 92.7244 33.2604 93.6903 33.8381C94.6657 34.4157 95.4564 35.2254 96.0625 36.267C96.6686 37.2992 96.9716 38.5303 96.9716 39.9602C96.9716 41.5038 96.5881 42.8816 95.821 44.0938C95.0634 45.2964 93.9413 46.2481 92.4545 46.9489C90.9678 47.6496 89.1354 48 86.9574 48H74.5284ZM80.679 42.9716H85.6932C87.4072 42.9716 88.6572 42.6449 89.4432 41.9915C90.2292 41.3286 90.6222 40.4479 90.6222 39.3494C90.6222 38.5445 90.428 37.8343 90.0398 37.2188C89.6515 36.6032 89.0975 36.1203 88.3778 35.7699C87.6676 35.4195 86.8201 35.2443 85.8352 35.2443H80.679V42.9716ZM80.679 31.0824H85.2386C86.0814 31.0824 86.8295 30.9356 87.483 30.642C88.1458 30.339 88.6667 29.9129 89.0455 29.3636C89.4337 28.8144 89.6278 28.1562 89.6278 27.3892C89.6278 26.3381 89.2538 25.4905 88.5057 24.8466C87.767 24.2027 86.7159 23.8807 85.3523 23.8807H80.679V31.0824Z" fill="#000526"/>
<path d="M120.818 29.3125C120.619 28.6212 120.34 28.0104 119.98 27.4801C119.62 26.9403 119.18 26.4858 118.659 26.1165C118.148 25.7377 117.561 25.4489 116.898 25.25C116.244 25.0511 115.52 24.9517 114.724 24.9517C113.238 24.9517 111.931 25.321 110.804 26.0597C109.687 26.7983 108.815 27.8731 108.19 29.2841C107.565 30.6856 107.253 32.3996 107.253 34.4261C107.253 36.4527 107.561 38.1761 108.176 39.5966C108.792 41.017 109.663 42.1013 110.79 42.8494C111.917 43.5881 113.247 43.9574 114.781 43.9574C116.173 43.9574 117.362 43.7112 118.347 43.2188C119.341 42.7169 120.098 42.0114 120.619 41.1023C121.15 40.1932 121.415 39.1184 121.415 37.8778L122.665 38.0625H115.165V33.4318H127.338V37.0966C127.338 39.6534 126.798 41.8504 125.719 43.6875C124.639 45.5152 123.152 46.9261 121.259 47.9205C119.365 48.9053 117.196 49.3977 114.753 49.3977C112.026 49.3977 109.63 48.7964 107.565 47.5938C105.501 46.3816 103.891 44.6629 102.736 42.4375C101.59 40.2027 101.017 37.5511 101.017 34.483C101.017 32.125 101.358 30.0227 102.04 28.1761C102.731 26.3201 103.697 24.7481 104.938 23.4602C106.178 22.1723 107.622 21.1922 109.27 20.5199C110.918 19.8475 112.703 19.5114 114.625 19.5114C116.273 19.5114 117.807 19.7528 119.227 20.2358C120.648 20.7093 121.907 21.3816 123.006 22.2528C124.114 23.1241 125.018 24.161 125.719 25.3636C126.42 26.5568 126.869 27.8731 127.068 29.3125H120.818Z" fill="#000526"/>
<path d="M31.076 74V63.0909H38.0646V64.7475H33.0522V67.7092H37.5852V69.3658H33.0522V74H31.076ZM41.8413 63.0909V74H39.8651V63.0909H41.8413ZM52.9461 63.0909V74H51.1883L46.048 66.5692H45.9575V74H43.9813V63.0909H45.7497L50.8847 70.527H50.9806V63.0909H52.9461ZM56.5004 74H54.391L58.2315 63.0909H60.6712L64.517 74H62.4077L59.494 65.3281H59.4087L56.5004 74ZM56.5696 69.7227H62.3224V71.31H56.5696V69.7227ZM74.9188 63.0909V74H73.161L68.0207 66.5692H67.9301V74H65.9539V63.0909H67.7224L72.8573 70.527H72.9532V63.0909H74.9188ZM86.4098 66.7717H84.4176C84.3608 66.445 84.256 66.1555 84.1033 65.9034C83.9506 65.6477 83.7607 65.4311 83.5334 65.2536C83.3061 65.076 83.0469 64.9428 82.7557 64.854C82.468 64.7617 82.1573 64.7156 81.8235 64.7156C81.2305 64.7156 80.7049 64.8647 80.2468 65.163C79.7887 65.4577 79.43 65.891 79.1708 66.4627C78.9116 67.0309 78.782 67.7251 78.782 68.5455C78.782 69.38 78.9116 70.0831 79.1708 70.6548C79.4336 71.223 79.7923 71.6527 80.2468 71.9439C80.7049 72.2315 81.2287 72.3754 81.8182 72.3754C82.1449 72.3754 82.4503 72.3327 82.7344 72.2475C83.022 72.1587 83.2795 72.0291 83.5067 71.8587C83.7376 71.6882 83.9311 71.4787 84.0874 71.2301C84.2472 70.9815 84.3572 70.6974 84.4176 70.3778L86.4098 70.3885C86.3352 70.907 86.1737 71.3935 85.9251 71.848C85.68 72.3026 85.3587 72.7038 84.9609 73.0518C84.5632 73.3963 84.098 73.6662 83.5653 73.8615C83.0327 74.0533 82.4414 74.1491 81.7915 74.1491C80.8327 74.1491 79.9769 73.9272 79.2241 73.4833C78.4712 73.0394 77.8782 72.3984 77.445 71.5604C77.0117 70.7223 76.7951 69.7173 76.7951 68.5455C76.7951 67.37 77.0135 66.3651 77.4503 65.5305C77.8871 64.6925 78.4819 64.0515 79.2347 63.6076C79.9876 63.1637 80.8398 62.9418 81.7915 62.9418C82.3988 62.9418 82.9634 63.027 83.4854 63.1974C84.0075 63.3679 84.4727 63.6183 84.881 63.9485C85.2894 64.2752 85.625 64.6765 85.8878 65.1523C86.1541 65.6246 86.3281 66.1644 86.4098 66.7717ZM88.2195 74V63.0909H95.3147V64.7475H90.1958V67.7092H94.9472V69.3658H90.1958V72.3434H95.3573V74H88.2195Z" fill="#000526"/>
</svg>
