<svg width="71" height="66" viewBox="0 0 71 66" fill="none" xmlns="http://www.w3.org/2000/svg">
<g filter="url(#filter0_d_1_59)">
<path d="M53.1556 2C53.209 8.45259 53.2499 14.9051 53.2749 21.3579C53.2869 24.3544 53.3032 27.3508 53.3294 30.3473C53.3544 33.241 53.3682 36.1346 53.3741 39.0284C53.3784 40.1304 53.3867 41.2324 53.3991 42.3344C53.4159 43.8823 53.4181 45.4297 53.4171 46.9777C53.4254 47.4296 53.4336 47.8816 53.4422 48.3472C53.4187 51.5256 52.7123 54.0886 50.8521 56.7066C48.7033 58.5245 46.7357 59.1251 43.9418 59.01C43.8884 52.4625 43.8475 45.915 43.8225 39.3672C43.8105 36.3268 43.7942 33.2864 43.7681 30.2461C43.743 27.3113 43.7293 24.3766 43.7233 21.4417C43.719 20.3227 43.7107 19.2037 43.6983 18.0847C43.6815 16.5158 43.6793 14.9475 43.6803 13.3786C43.6721 12.9171 43.6638 12.4557 43.6552 11.9803C43.6774 8.96453 44.2725 7.28572 46.2453 4.8793C47.397 3.91203 47.397 3.91203 48.5487 3.2237C48.9288 2.98764 49.3088 2.75159 49.7004 2.50838C50.8521 2 50.8521 2 53.1556 2Z" fill="#06BD91"/>
<path d="M66.4003 6.60687C66.4538 12.4588 66.4947 18.3107 66.5197 24.1628C66.5317 26.8805 66.5479 29.598 66.5741 32.3155C66.5992 34.9404 66.6129 37.5652 66.6189 40.1902C66.6231 41.1893 66.6314 42.1885 66.6439 43.1876C66.6607 44.5921 66.6629 45.996 66.6618 47.4006C66.6701 47.8095 66.6784 48.2183 66.6869 48.6395C66.6618 51.7243 65.8536 54.1963 64.0969 56.7066C61.9504 58.5263 59.9791 59.125 57.1866 59.01C57.1198 53.0731 57.0687 47.1363 57.0374 41.1991C57.0224 38.4419 57.0021 35.6851 56.9694 32.9281C56.938 30.2659 56.9209 27.6039 56.9134 24.9415C56.9081 23.9274 56.8977 22.9133 56.8822 21.8993C56.8612 20.4752 56.8584 19.0521 56.8597 17.6279C56.8494 17.2116 56.839 16.7953 56.8284 16.3664C56.8608 13.1439 57.9366 11.2072 60.0659 8.91031C62.0687 7.44483 63.9052 6.60687 66.4003 6.60687Z" fill="#06BD92"/>
<path d="M39.9108 16.9723C39.9644 21.4728 40.0052 25.9731 40.0302 30.4738C40.0421 32.564 40.0584 34.654 40.0846 36.7442C40.1098 38.7642 40.1234 40.784 40.1294 42.8041C40.1356 43.9435 40.1536 45.0828 40.1718 46.2221C40.1728 50.3729 39.9407 53.2197 37.6074 56.7066C35.4419 58.5112 33.5005 59.1255 30.6971 59.01C30.6436 54.4146 30.6027 49.8193 30.5777 45.2237C30.5657 43.0895 30.5495 40.9556 30.5233 38.8215C30.4982 36.7604 30.4845 34.6995 30.4785 32.6383C30.4743 31.8536 30.466 31.0688 30.4535 30.2842C30.3374 22.67 30.3374 22.67 33.0005 19.8516C35.3342 17.7456 36.7131 16.9723 39.9108 16.9723Z" fill="#06BC91"/>
<path d="M26.6661 27.3378C26.7233 30.7799 26.7649 34.2217 26.7926 37.6642C26.8041 38.8337 26.8198 40.0033 26.8398 41.1727C26.868 42.8596 26.8809 44.5461 26.891 46.2332C26.9029 46.751 26.9148 47.2689 26.927 47.8024C26.9282 51.1958 26.4006 53.9211 24.3626 56.7066C22.2096 58.5211 20.2486 59.1252 17.4523 59.01C17.3791 55.3935 17.3288 51.7771 17.2942 48.16C17.2797 46.9306 17.2601 45.7012 17.2351 44.472C17.2 42.7008 17.1838 40.9302 17.1711 39.1586C17.1563 38.6126 17.1414 38.0666 17.1261 37.504C17.1245 33.7358 17.8239 31.8995 20.3316 29.0654C22.5128 27.3316 23.9382 27.274 26.6661 27.3378Z" fill="#4FFEA6"/>
<path d="M13.9972 40.5826C13.9839 42.5029 13.9392 44.4214 13.8892 46.3411C13.8858 46.8793 13.8825 47.4175 13.8791 47.972C13.761 51.7252 13.045 54.41 10.542 57.2825C8.30535 58.7736 6.8407 59.0812 4.20756 59.01C4.14025 57.0667 4.0996 55.1236 4.0636 53.1795C4.0443 52.6316 4.025 52.0838 4.00511 51.5194C3.95806 48.1321 4.19368 46.1253 6.511 43.4619C8.98475 41.2294 10.6757 40.4928 13.9972 40.5826Z" fill="#4FFDA5"/>
<path d="M13.9972 40.5826C13.8071 41.3427 13.6171 42.1028 13.4213 42.886C12.7324 42.9929 12.0436 43.0998 11.3338 43.2099C8.426 43.933 6.9046 45.5596 5.35929 48.0687C4.81659 49.6567 4.81659 49.6567 4.78343 50.948C4.59339 50.948 4.40336 50.948 4.20757 50.948C3.94349 47.647 4.40541 46.0227 6.511 43.4619C8.98476 41.2294 10.6757 40.4928 13.9972 40.5826Z" fill="#D7F0E8"/>
<path d="M39.9108 16.9723C39.9108 17.7325 39.9108 18.4926 39.9108 19.2758C39.02 19.4717 39.02 19.4717 38.1113 19.6717C35.7069 20.374 34.1699 21.4804 32.4247 23.3068C31.8346 24.6676 31.561 25.8684 31.2729 27.3378C31.0829 27.3378 30.8929 27.3378 30.6971 27.3378C30.433 24.0368 30.8949 22.4125 33.0005 19.8516C35.3342 17.7456 36.7131 16.9723 39.9108 16.9723Z" fill="#43EC9F"/>
<path d="M53.1556 2C53.1556 2.76013 53.1556 3.52027 53.1556 4.30344C52.8149 4.38806 52.4741 4.47268 52.1231 4.55987C48.7013 5.53115 47.1136 6.55381 45.0936 9.48617C44.6257 8.5504 44.6257 8.5504 44.5177 7.18273C46.7349 3.89053 49.02 2 53.1556 2Z" fill="#41E99E"/>
<path d="M26.6661 27.3378C26.6661 27.9079 26.6661 28.478 26.6661 29.0654C26.3253 29.15 25.9846 29.2346 25.6336 29.3218C22.1933 30.2983 20.606 31.2755 18.604 34.2481C17.8678 35.5241 17.8678 35.5241 17.4523 36.5515C17.1705 34.2405 17.4234 32.8656 18.712 30.9729C20.996 28.073 22.9299 27.0771 26.6661 27.3378Z" fill="#E3F3EE"/>
<path d="M66.4003 6.60687C66.4003 7.36701 66.4003 8.12714 66.4003 8.91031C66.0596 9.00161 65.7189 9.09292 65.3678 9.18699C62.2451 10.109 60.4347 11.015 58.3383 13.5172C58.3383 11.2137 58.3383 11.2137 59.526 9.73811C61.5204 8.08318 63.706 6.60687 66.4003 6.60687Z" fill="#44EC9F"/>
<path d="M34.1522 18.6999C34.5323 18.8899 34.9124 19.08 35.304 19.2758C33.5764 21.8671 33.5764 21.8671 31.8488 24.4585C31.6271 25.4118 31.4296 26.3716 31.2729 27.3378C31.0829 27.3378 30.8929 27.3378 30.6971 27.3378C30.4332 24.0391 30.9515 22.4431 33.0005 19.8516C33.3806 19.4716 33.7606 19.0915 34.1522 18.6999Z" fill="#3CE39C"/>
</g>
<defs>
<filter id="filter0_d_1_59" x="0" y="0" width="70.6869" height="65.0237" filterUnits="userSpaceOnUse" color-interpolation-filters="sRGB">
<feFlood flood-opacity="0" result="BackgroundImageFix"/>
<feColorMatrix in="SourceAlpha" type="matrix" values="0 0 0 0 0 0 0 0 0 0 0 0 0 0 0 0 0 0 127 0" result="hardAlpha"/>
<feOffset dy="2"/>
<feGaussianBlur stdDeviation="2"/>
<feComposite in2="hardAlpha" operator="out"/>
<feColorMatrix type="matrix" values="0 0 0 0 0 0 0 0 0 0 0 0 0 0 0 0 0 0 0.19 0"/>
<feBlend mode="normal" in2="BackgroundImageFix" result="effect1_dropShadow_1_59"/>
<feBlend mode="normal" in="SourceGraphic" in2="effect1_dropShadow_1_59" result="shape"/>
</filter>
</defs>
</svg>
